# xmcd
# 
# Track frame offsets:
#     150
#     18249
#     37614
#     52480
#     74947
#     92080
#     116781
#     136501
#     156451
#     171633
#     189111
#     206805
# 
# Disc length: 2978
# 
# Revision: 0
# Processed by: cddbd v1.5.2PL0 Copyright (c) Steve Scherf et al.
# Submitted via: fre:ac v1.1beta1pre4
# 
DISCID=b00ba00c
DTITLE=7 WORLDS COLLIDE - THE SUN CAME OUT
DYEAR=0
DGENRE=
TTITLE0=TOO BLUE
TTITLE1=YOU NEVER KNOW
TTITLE2=LITTLE BY LITTLE
TTITLE3=LEARN TO CRAWL
TTITLE4=BLACK SOLD RIBBON
TTITLE5=GIRL, MAKE YOUR OWN
TTITLE6=RUND IN THE DUST
TTITLE7=RED WINE BOTTLE
TTITLE8=THE TIES THEY BIND US
TTITLE9=REPTILE
TTITLE10=BODHISATTWA BLUES
TTITLE11=WAHT COULD HAVE BEEN
EXTD=
EXTT0=
EXTT1=
EXTT2=
EXTT3=
EXTT4=
EXTT5=
EXTT6=
EXTT7=
EXTT8=
EXTT9=
EXTT10=
EXTT11=
PLAYORDER=
